<?xml version="1.0" encoding="iso-8859-1"?>
<!-- Generator: Adobe Illustrator 19.0.0, SVG Export Plug-In . SVG Version: 6.00 Build 0)  -->
<svg version="1.1" id="Capa_1" xmlns="http://www.w3.org/2000/svg" xmlns:xlink="http://www.w3.org/1999/xlink" x="0px" y="0px"
	 viewBox="0 0 512 512" style="enable-background:new 0 0 512 512;" xml:space="preserve">
<circle style="fill:#666666;" cx="255.856" cy="248.16" r="155.872"/>
<circle style="fill:#CCCCCC;" cx="256" cy="24.528" r="24.528"/>
<circle style="fill:#F91E1E;" cx="256" cy="487.472" r="24.528"/>
<circle style="fill:#666666;" cx="24.528" cy="256" r="24.528"/>
<circle style="fill:#F91E1E;" cx="487.472" cy="256" r="24.528"/>
<ellipse style="fill:#CCCCCC;" cx="92.315" cy="419.676" rx="24.528" ry="24.528"/>
<g>
	<ellipse style="fill:#999999;" cx="419.675" cy="92.324" rx="24.528" ry="24.528"/>
	<ellipse style="fill:#999999;" cx="419.671" cy="419.68" rx="24.528" ry="24.528"/>
</g>
<ellipse style="fill:#F91E1E;" cx="92.319" cy="92.32" rx="24.528" ry="24.528"/>
<g>
	<rect x="252" y="49.056" style="fill:#CCCCCC;" width="8" height="413.888"/>
	<rect x="49.056" y="252" style="fill:#CCCCCC;" width="413.896" height="8"/>
	<g transform="matrix(0.7071 -0.7071 0.7071 0.7071 -13.255 32)">
		<rect x="-174.955" y="344.784" style="fill:#CCCCCC;" width="413.904" height="8"/>
		<rect x="27.997" y="141.832" style="fill:#CCCCCC;" width="8" height="413.904"/>
	</g>
</g>
<circle style="fill:#FFFFFF;" cx="255.856" cy="248.16" r="131.344"/>
<circle style="fill:#CCCCCC;" cx="255.856" cy="248.16" r="114.072"/>
<path style="fill:#999999;" d="M273.936,249.352v-10.744c11.016-6.256,18.464-18.072,18.464-31.648
	c0-20.096-16.296-36.392-36.392-36.392s-36.392,16.296-36.392,36.392c0,13.576,7.448,25.392,18.464,31.648v10.744
	c-33.912,1.584-51.16,24.52-51.16,39.936c0,11.6,0,12.656,0,12.656H256h69.096c0,0,0-1.056,0-12.656
	C325.096,273.872,307.848,250.936,273.936,249.352z"/>
<g>
</g>
<g>
</g>
<g>
</g>
<g>
</g>
<g>
</g>
<g>
</g>
<g>
</g>
<g>
</g>
<g>
</g>
<g>
</g>
<g>
</g>
<g>
</g>
<g>
</g>
<g>
</g>
<g>
</g>
</svg>
