<?xml version="1.0" encoding="utf-8"?>
<!-- Generator: Adobe Illustrator 23.0.3, SVG Export Plug-In . SVG Version: 6.00 Build 0)  -->
<svg version="1.0" id="Capa_1" xmlns="http://www.w3.org/2000/svg" xmlns:xlink="http://www.w3.org/1999/xlink" x="0px" y="0px"
	 viewBox="0 0 512 512" style="enable-background:new 0 0 512 512;" xml:space="preserve">
<style type="text/css">
	.st0{fill:#666666;}
	.st1{fill:#CCCCCC;}
	.st2{fill:#C7001C;}
	.st3{fill:#999999;}
	.st4{fill:#FFFFFF;}
</style>
<circle class="st0" cx="255.9" cy="248.2" r="155.9"/>
<ellipse transform="matrix(0.1602 -0.9871 0.9871 0.1602 190.7821 273.2934)" class="st1" cx="256" cy="24.5" rx="24.5" ry="24.5"/>
<circle class="st2" cx="256" cy="487.5" r="24.5"/>
<circle class="st0" cx="24.5" cy="256" r="24.5"/>
<circle class="st2" cx="487.5" cy="256" r="24.5"/>
<ellipse class="st1" cx="92.3" cy="419.7" rx="24.5" ry="24.5"/>
<g>
	<ellipse class="st3" cx="419.7" cy="92.3" rx="24.5" ry="24.5"/>
	<ellipse class="st3" cx="419.7" cy="419.7" rx="24.5" ry="24.5"/>
</g>
<ellipse class="st2" cx="92.3" cy="92.3" rx="24.5" ry="24.5"/>
<g>
	<rect x="252" y="49.1" class="st1" width="8" height="413.9"/>
	<rect x="49.1" y="252" class="st1" width="413.9" height="8"/>
	<g transform="matrix(0.7071 -0.7071 0.7071 0.7071 -13.255 32)">
		
			<rect x="-175" y="344.8" transform="matrix(-1 2.535182e-06 -2.535182e-06 -1 63.9949 697.5679)" class="st1" width="413.9" height="8"/>
		
			<rect x="28" y="141.8" transform="matrix(-1 2.535182e-06 -2.535182e-06 -1 63.9949 697.5679)" class="st1" width="8" height="413.9"/>
	</g>
</g>
<circle class="st4" cx="255.9" cy="248.2" r="131.3"/>
<circle class="st1" cx="255.9" cy="248.2" r="114.1"/>
<path class="st3" d="M273.9,249.4v-10.7c11-6.3,18.5-18.1,18.5-31.6c0-20.1-16.3-36.4-36.4-36.4s-36.4,16.3-36.4,36.4
	c0,13.6,7.4,25.4,18.5,31.6v10.7c-33.9,1.6-51.2,24.5-51.2,39.9c0,11.6,0,12.7,0,12.7H256h69.1c0,0,0-1.1,0-12.7
	C325.1,273.9,307.8,250.9,273.9,249.4z"/>
</svg>
