<?xml version="1.0" encoding="iso-8859-1"?>
<!-- Generator: Adobe Illustrator 19.0.0, SVG Export Plug-In . SVG Version: 6.00 Build 0)  -->
<svg version="1.1" id="Capa_1" xmlns="http://www.w3.org/2000/svg" xmlns:xlink="http://www.w3.org/1999/xlink" x="0px" y="0px"
	 viewBox="0 0 512 512" style="enable-background:new 0 0 512 512;" xml:space="preserve">
<g>
	<path style="fill:#999999;" d="M290.808,69.475h-8v-8h8V69.475z M274.808,69.475h-8v-8h8V69.475z M258.808,69.475h-8v-8h8V69.475z
		 M242.808,69.475h-8v-8h8V69.475z M226.808,69.475h-8v-8h8V69.475z M210.808,69.475h-8v-8h8V69.475z M194.808,69.475h-8v-8h8
		V69.475z M178.808,69.475h-8v-8h8V69.475z M162.808,69.475h-8v-8h8V69.475z M146.808,69.475h-8v-8h8V69.475z M130.808,69.475h-8v-8
		h8V69.475z M114.808,69.475h-8v-8h8V69.475z M98.808,69.475h-8v-8h8V69.475z M82.808,69.475h-8v-8h8V69.475z M66.808,69.475h-8v-8
		h8V69.475z M50.808,69.475h-8v-8h8V69.475z M34.808,69.475h-8v-8h8V69.475z"/>
	<path style="fill:#999999;" d="M426.056,119.155h-7.984v-8h7.984V119.155z M410.072,119.155h-8v-8h8V119.155z M394.072,119.155h-8
		v-8h8V119.155z M378.072,119.155h-8v-8h8V119.155z M362.072,119.155h-8v-8h8V119.155z M346.072,119.155h-8v-8h8V119.155z
		 M330.072,119.155h-8v-8h8V119.155z M314.072,119.155h-8v-8h8V119.155z M298.072,119.155h-8v-8h8V119.155z M282.072,119.155h-8v-8
		h8V119.155z M266.072,119.155h-8v-8h8V119.155z M250.072,119.155h-8v-8h8V119.155z M234.072,119.155h-8v-8h8V119.155z
		 M218.072,119.155h-8v-8h8V119.155z"/>
	<path style="fill:#999999;" d="M512,289.987h-8v-8h8V289.987z M496,289.987h-8v-8h8V289.987z M480,289.987h-8v-8h8V289.987z
		 M464,289.987h-8v-8h8V289.987z M448,289.987h-8v-8h8V289.987z M432,289.987h-8v-8h8V289.987z M416,289.987h-8v-8h8V289.987z
		 M400,289.987h-7.208v-8H400V289.987z"/>
	<path style="fill:#999999;" d="M268.728,339.667h-8v-8h8V339.667z M252.728,339.667h-8v-8h8V339.667z M236.728,339.667h-8v-8h8
		V339.667z M220.728,339.667h-8v-8h8V339.667z M204.728,339.667h-8v-8h8V339.667z M188.728,339.667h-8v-8h8V339.667z
		 M172.728,339.667h-8v-8h8V339.667z M156.728,339.667h-8v-8h8V339.667z M140.728,339.667h-8v-8h8V339.667z"/>
	<path style="fill:#999999;" d="M160.704,289.987h-8v-8h8V289.987z M144.704,289.987h-8v-8h8V289.987z M128.704,289.987h-8v-8h8
		V289.987z M112.704,289.987h-8v-8h8V289.987z M96.704,289.987h-8v-8h8V289.987z M80.704,289.987h-8v-8h8V289.987z M64.704,289.987
		h-8v-8h8V289.987z M48.704,289.987h-8v-8h8V289.987z"/>
</g>
<polygon style="fill:#666666;" points="313.816,296.283 180.864,162.163 52.456,290.579 41.144,279.259 180.912,139.491 
	313.816,273.555 441.064,145.195 452.424,156.459 "/>
<circle style="fill:#999999;" cx="46.792" cy="284.883" r="46.792"/>
<circle style="fill:#FFFFFF;" cx="46.792" cy="284.883" r="20.592"/>
<circle style="fill:#999999;" cx="315.976" cy="284.883" r="46.792"/>
<circle style="fill:#FFFFFF;" cx="315.976" cy="284.883" r="20.592"/>
<circle style="fill:#999999;" cx="180.96" cy="150.827" r="65.256"/>
<circle style="fill:#FFFFFF;" cx="180.96" cy="150.827" r="28.72"/>
<circle style="fill:#999999;" cx="446.744" cy="150.827" r="65.256"/>
<circle style="fill:#FFFFFF;" cx="446.744" cy="150.827" r="28.72"/>
<rect x="158.522" y="382.274" transform="matrix(-0.7071 0.7071 -0.7071 -0.7071 650.277 527.6573)" style="fill:#FF0000;" width="114.671" height="32.464"/>
<g style="opacity:0.15;">
	<polygon points="206.016,385.363 237.312,399.971 256.6,380.683 233.648,357.731 	"/>
</g>
<rect x="232.406" y="344.852" transform="matrix(-0.7071 0.7071 -0.7071 -0.7071 680.8376 453.8191)" width="28.048" height="46.128"/>
<g transform="matrix(0.7071 -0.7071 0.7071 0.7071 -13.824 39.11)">
	<ellipse transform="matrix(-0.7071 -0.7071 0.7071 -0.7071 -193.8362 752.7039)" cx="58.971" cy="416.497" rx="96.48" ry="96.48"/>
	
		<ellipse transform="matrix(-0.7071 -0.7071 0.7071 -0.7071 -193.8362 752.7039)" style="fill:#FFFFFF;" cx="58.971" cy="416.497" rx="79.584" ry="79.584"/>
</g>
<path style="fill:#666666;" d="M273.312,242.859c27.064-27.064,71.096-27.064,98.16,0c27.064,27.064,27.064,71.096,0,98.16
	s-71.096,27.064-98.16,0S246.256,269.915,273.312,242.859z M275,244.539c-26.136,26.136-26.136,68.656,0,94.792
	s68.656,26.136,94.792,0s26.136-68.656,0-94.792C343.656,218.403,301.136,218.403,275,244.539z"/>
<g>
</g>
<g>
</g>
<g>
</g>
<g>
</g>
<g>
</g>
<g>
</g>
<g>
</g>
<g>
</g>
<g>
</g>
<g>
</g>
<g>
</g>
<g>
</g>
<g>
</g>
<g>
</g>
<g>
</g>
</svg>
