<?xml version="1.0" encoding="utf-8"?>
<!-- Generator: Adobe Illustrator 23.0.3, SVG Export Plug-In . SVG Version: 6.00 Build 0)  -->
<svg version="1.0" id="Capa_1" xmlns="http://www.w3.org/2000/svg" xmlns:xlink="http://www.w3.org/1999/xlink" x="0px" y="0px"
	 viewBox="0 0 512 512" style="enable-background:new 0 0 512 512;" xml:space="preserve">
<style type="text/css">
	.st0{fill:#999999;}
	.st1{fill:#666666;}
	.st2{fill:#FFFFFF;}
	.st3{fill:#C7001C;}
	.st4{opacity:0.15;}
</style>
<g>
	<path class="st0" d="M290.8,69.5h-8v-8h8V69.5z M274.8,69.5h-8v-8h8V69.5z M258.8,69.5h-8v-8h8V69.5z M242.8,69.5h-8v-8h8V69.5z
		 M226.8,69.5h-8v-8h8V69.5z M210.8,69.5h-8v-8h8V69.5z M194.8,69.5h-8v-8h8V69.5z M178.8,69.5h-8v-8h8V69.5z M162.8,69.5h-8v-8h8
		V69.5z M146.8,69.5h-8v-8h8V69.5z M130.8,69.5h-8v-8h8V69.5z M114.8,69.5h-8v-8h8V69.5z M98.8,69.5h-8v-8h8V69.5z M82.8,69.5h-8v-8
		h8V69.5z M66.8,69.5h-8v-8h8V69.5z M50.8,69.5h-8v-8h8V69.5z M34.8,69.5h-8v-8h8V69.5z"/>
	<path class="st0" d="M426.1,119.2h-8v-8h8V119.2z M410.1,119.2h-8v-8h8V119.2z M394.1,119.2h-8v-8h8V119.2z M378.1,119.2h-8v-8h8
		V119.2z M362.1,119.2h-8v-8h8V119.2z M346.1,119.2h-8v-8h8V119.2z M330.1,119.2h-8v-8h8V119.2z M314.1,119.2h-8v-8h8V119.2z
		 M298.1,119.2h-8v-8h8V119.2z M282.1,119.2h-8v-8h8V119.2z M266.1,119.2h-8v-8h8V119.2z M250.1,119.2h-8v-8h8V119.2z M234.1,119.2
		h-8v-8h8V119.2z M218.1,119.2h-8v-8h8V119.2z"/>
	<path class="st0" d="M512,290h-8v-8h8V290z M496,290h-8v-8h8V290z M480,290h-8v-8h8V290z M464,290h-8v-8h8V290z M448,290h-8v-8h8
		V290z M432,290h-8v-8h8V290z M416,290h-8v-8h8V290z M400,290h-7.2v-8h7.2V290z"/>
	<path class="st0" d="M268.7,339.7h-8v-8h8V339.7z M252.7,339.7h-8v-8h8V339.7z M236.7,339.7h-8v-8h8V339.7z M220.7,339.7h-8v-8h8
		V339.7z M204.7,339.7h-8v-8h8V339.7z M188.7,339.7h-8v-8h8V339.7z M172.7,339.7h-8v-8h8V339.7z M156.7,339.7h-8v-8h8V339.7z
		 M140.7,339.7h-8v-8h8V339.7z"/>
	<path class="st0" d="M160.7,290h-8v-8h8V290z M144.7,290h-8v-8h8V290z M128.7,290h-8v-8h8V290z M112.7,290h-8v-8h8V290z M96.7,290
		h-8v-8h8V290z M80.7,290h-8v-8h8V290z M64.7,290h-8v-8h8V290z M48.7,290h-8v-8h8V290z"/>
</g>
<polygon class="st1" points="313.8,296.3 180.9,162.2 52.5,290.6 41.1,279.3 180.9,139.5 313.8,273.6 441.1,145.2 452.4,156.5 "/>
<circle class="st0" cx="46.8" cy="284.9" r="46.8"/>
<ellipse transform="matrix(0.9985 -5.530040e-02 5.530040e-02 0.9985 -15.6825 3.0236)" class="st2" cx="46.8" cy="284.9" rx="20.6" ry="20.6"/>
<circle class="st0" cx="316" cy="284.9" r="46.8"/>
<circle class="st2" cx="316" cy="284.9" r="20.6"/>
<circle class="st0" cx="181" cy="150.8" r="65.3"/>
<circle class="st2" cx="181" cy="150.8" r="28.7"/>
<circle class="st0" cx="446.7" cy="150.8" r="65.3"/>
<circle class="st2" cx="446.7" cy="150.8" r="28.7"/>
<rect x="158.5" y="382.3" transform="matrix(0.7071 -0.7071 0.7071 0.7071 -218.5626 269.3564)" class="st3" width="114.7" height="32.5"/>
<g class="st4">
	<polygon points="206,385.4 237.3,400 256.6,380.7 233.6,357.7 	"/>
</g>
<rect x="232.4" y="344.9" transform="matrix(0.7071 -0.7071 0.7071 0.7071 -187.9774 282.015)" width="28" height="46.1"/>
<g transform="matrix(0.7071 -0.7071 0.7071 0.7071 -13.824 39.11)">
	<ellipse transform="matrix(-0.7071 -0.7071 0.7071 -0.7071 -193.8406 752.7098)" cx="59" cy="416.5" rx="96.5" ry="96.5"/>
	
		<ellipse transform="matrix(-0.7071 -0.7071 0.7071 -0.7071 -193.8406 752.7098)" class="st2" cx="59" cy="416.5" rx="79.6" ry="79.6"/>
</g>
<path class="st1" d="M273.3,242.9c27.1-27.1,71.1-27.1,98.2,0s27.1,71.1,0,98.2s-71.1,27.1-98.2,0S246.3,269.9,273.3,242.9z
	 M275,244.5c-26.1,26.1-26.1,68.7,0,94.8s68.7,26.1,94.8,0s26.1-68.7,0-94.8S301.1,218.4,275,244.5z"/>
</svg>
