<?xml version="1.0" encoding="utf-8"?>
<!-- Generator: Adobe Illustrator 23.0.3, SVG Export Plug-In . SVG Version: 6.00 Build 0)  -->
<svg version="1.1" id="Layer_1" xmlns="http://www.w3.org/2000/svg" xmlns:xlink="http://www.w3.org/1999/xlink" x="0px" y="0px"
	 viewBox="0 0 562.3 564.5" style="enable-background:new 0 0 562.3 564.5;" xml:space="preserve">
<style type="text/css">
	.st0{fill:#C52026;}
	.st1{fill:#010101;}
</style>
<rect x="0" y="0" class="st0" width="562.3" height="564.4"/>
<g>
	<g>
		<path class="st1" d="M534.4,403.8l-42.5-267.6c-0.6-4-4.4-6.7-8.4-6.1c-4,0.6-6.7,4.4-6.1,8.4L520,406.1
			c1.7,11-5.8,21.3-16.8,23.1c-11,1.8-21.3-5.8-23.1-16.8l-1.7-11c0,0,0,0,0,0L426.8,76.7c0,0,0,0,0,0l-1.7-11
			c-1.7-11,5.8-21.3,16.8-23.1c11-1.8,21.3,5.8,23.1,16.8l4.4,27.8c0.6,4,4.4,6.7,8.4,6.1c4-0.6,6.7-4.4,6.1-8.4l-4.4-27.8
			c-3-18.9-20.9-31.9-39.8-28.9c-18.9,3-31.9,20.9-28.9,39.8l1.1,6.7c-47.1,35.7-104.5,67.6-170.6,94.8c-1.7-4.1-4.5-7.7-8.1-10.4
			c-5.2-3.8-11.5-5.3-17.9-4.3l-112.2,17.8c-6.3,1-11.9,4.4-15.7,9.6c-3.8,5.2-5.3,11.5-4.3,17.9l3.4,21.5L71.7,224
			c-11.4,1.8-21.4,7.9-28.1,17.2c-6.8,9.3-9.5,20.7-7.7,32.1l9.9,62.3c3.4,21.2,21.7,36.3,42.5,36.3c2.2,0,4.5-0.2,6.8-0.5l14.7-2.3
			l3.4,21.5c1.9,11.8,12.1,20.3,23.7,20.3c1.2,0,2.5-0.1,3.8-0.3l17.3-2.8l46,116.5c3.7,9.5,12.7,15.4,22.5,15.4
			c1.3,0,2.6-0.1,3.9-0.3l36.9-5.9c7.3-1.2,13.6-5.5,17.3-12c3.7-6.4,4.2-14.1,1.5-21l-15-38c-1.5-3.8-5.7-5.6-9.5-4.1
			c-3.8,1.5-5.6,5.7-4.1,9.5l15,38c1.1,2.8,0.9,5.8-0.6,8.4c-1.5,2.6-4,4.3-6.9,4.8l-36.9,5.9c-4.5,0.7-8.9-1.8-10.6-6l-44.8-113.5
			l56.6-9l9,22.9c1.5,3.8,5.7,5.6,9.5,4.1c3.8-1.5,5.6-5.7,4.1-9.5l-7.9-19.9l8.7-1.4c11.3-1.8,19.5-11.2,20.2-22.1
			c71.3,5.4,135.8,18,191.6,37.4l1.1,6.7c2.7,17.1,17.5,29.3,34.3,29.3c1.8,0,3.6-0.1,5.5-0.4C524.5,440.6,537.5,422.7,534.4,403.8z
			 M92.8,357.1c-15.5,2.5-30.1-8.2-32.6-23.7l-9.9-62.3c-1.2-7.5,0.6-15.1,5.1-21.2c4.5-6.2,11.1-10.2,18.6-11.4l14.6-2.3
			l18.9,118.6L92.8,357.1z M256.7,374.6c-1.5,2-3.7,3.4-6.1,3.8l-112.2,17.8c0,0,0,0,0,0c-5.1,0.8-10-2.7-10.8-7.8L97.3,197.9
			c-0.4-2.5,0.2-5,1.7-7c1.5-2,3.7-3.4,6.1-3.8l112.2-17.8c0.5-0.1,1-0.1,1.5-0.1c4.6,0,8.6,3.3,9.3,7.9l30.3,190.5
			C258.8,370.1,258.2,372.6,256.7,374.6z M271.3,355.9L244,184.1c65.5-26.8,122.7-58,170.3-93.1l47.8,300.7
			C406,373.1,342,361.1,271.3,355.9z"/>
	</g>
</g>
<g>
	<g>
		<path class="st1" d="M211.8,231.3c-0.6-4-4.4-6.7-8.4-6.1L129.8,237c-4,0.6-6.7,4.4-6.1,8.4c0.6,3.6,3.7,6.2,7.2,6.2
			c0.4,0,0.8,0,1.2-0.1l73.6-11.7C209.7,239,212.4,235.3,211.8,231.3z"/>
	</g>
</g>
<g>
	<g>
		<path class="st1" d="M218.7,274.3c-0.6-4-4.4-6.7-8.4-6.1L136.7,280c-4,0.6-6.7,4.4-6.1,8.4c0.6,3.6,3.7,6.2,7.2,6.2
			c0.4,0,0.8,0,1.2-0.1l73.6-11.7C216.6,282.1,219.4,278.3,218.7,274.3z"/>
	</g>
</g>
<g>
	<g>
		<path class="st1" d="M226.3,321.1c-0.6-4-4.4-6.7-8.4-6.1l-73.6,11.7c-4,0.6-6.7,4.4-6.1,8.4c0.6,3.6,3.7,6.2,7.2,6.2
			c0.4,0,0.8,0,1.2-0.1l73.6-11.7C224.2,328.9,226.9,325.1,226.3,321.1z"/>
	</g>
</g>
</svg>
