<?xml version="1.0" encoding="utf-8"?>
<!-- Generator: Adobe Illustrator 23.0.3, SVG Export Plug-In . SVG Version: 6.00 Build 0)  -->
<svg version="1.1" id="Layer_1" xmlns="http://www.w3.org/2000/svg" xmlns:xlink="http://www.w3.org/1999/xlink" x="0px" y="0px"
	 viewBox="0 0 562.1 564.5" style="enable-background:new 0 0 562.1 564.5;" xml:space="preserve">
<style type="text/css">
	.st0{fill:#C52026;}
	.st1{fill:#010101;}
</style>
<rect x="0.5" y="0" class="st0" width="562.1" height="564.5"/>
<g>
	<g>
		<path class="st1" d="M190.6,442l-15.1-59.3c-1-3.9-5-6.3-8.9-5.3c-3.9,1-6.3,5-5.3,8.9l15.1,59.3c0.8,3.3,3.8,5.5,7.1,5.5
			c0.6,0,1.2-0.1,1.8-0.2C189.2,449.9,191.5,445.9,190.6,442z"/>
	</g>
</g>
<g>
	<g>
		<path class="st1" d="M162.8,333.3l-6-23.6c-1-3.9-5-6.3-8.9-5.3c-3.9,1-6.3,5-5.3,8.9l6,23.6c0.8,3.3,3.8,5.5,7.1,5.5
			c0.6,0,1.2-0.1,1.8-0.2C161.5,341.2,163.8,337.2,162.8,333.3z"/>
	</g>
</g>
<g>
	<g>
		<path class="st1" d="M262.9,443.2l-11.3-132.3c-0.3-4-3.9-7-7.9-6.6c-4,0.3-7,3.9-6.6,7.9l11.3,132.3c0.3,3.8,3.5,6.7,7.3,6.7
			c0.2,0,0.4,0,0.6,0C260.3,450.8,263.2,447.2,262.9,443.2z"/>
	</g>
</g>
<g>
	<g>
		<path class="st1" d="M528.1,216.9H444L327.7,55.4C320,44.8,305,42.3,294.3,50c-0.9,0.7-1.8,1.4-2.6,2.2c-0.8-0.8-1.7-1.5-2.6-2.2
			c-10.7-7.7-25.6-5.3-33.3,5.4L139.4,216.9H55.3c-10.8,0-19.6,8.8-19.6,19.6v31.3c0,10.8,8.8,19.6,19.6,19.6h11l44.2,173.2
			c4.7,18.3,21.1,31,39.9,31h185.2c4,0,7.3-3.3,7.3-7.3c0-4-3.3-7.3-7.3-7.3H150.4c-12.2,0-22.8-8.2-25.8-20L81.3,287.5h420.7
			l-5.7,22.2c-1,3.9,1.4,7.9,5.3,8.9c3.9,1,7.9-1.4,8.9-5.3l6.6-25.8h11c10.8,0,19.6-8.8,19.6-19.6v-31.3
			C547.7,225.7,538.9,216.9,528.1,216.9z M299.1,67.9c0.4-2.5,1.7-4.6,3.7-6.1c4.2-3,10-2.1,13,2.1l127.3,176.7c1.5,2,2,4.5,1.6,6.9
			c-0.4,2.5-1.7,4.6-3.7,6.1c-1.6,1.1-3.5,1.8-5.4,1.8c-2.6,0-5.1-1.1-6.9-3c-0.3-0.3-0.5-0.6-0.7-0.9L300.7,74.8
			C299.3,72.8,298.7,70.4,299.1,67.9z M291.7,87.2l93.4,129.7H198.3L291.7,87.2z M140.3,240.7L267.6,64c1.8-2.5,4.7-3.9,7.6-3.9
			c1.9,0,3.8,0.6,5.4,1.8c2,1.5,3.3,3.6,3.7,6.1c0.4,2.5-0.2,4.9-1.6,6.9L155.4,251.5c-0.2,0.3-0.5,0.6-0.7,0.9
			c-1.8,1.9-4.2,3-6.9,3c-2,0-3.8-0.6-5.4-1.8c-2-1.5-3.3-3.6-3.7-6.1C138.2,245.1,138.8,242.7,140.3,240.7z M533.1,267.9
			c0,2.8-2.3,5-5,5H55.3c-2.8,0-5-2.3-5-5v-31.3c0-2.8,2.3-5,5-5h73.6l-0.5,0.7c-3.5,4.9-5,10.7-4.4,16.6c0,0.4,0.1,0.8,0.2,1.2
			c0.7,4.2,2.4,8,5,11.2c1.3,1.6,2.8,3.1,4.6,4.3c4.1,2.9,8.9,4.5,13.9,4.5c7.7,0,14.9-3.7,19.4-9.9l20.6-28.6h207.9l20.6,28.6
			c4.5,6.2,11.7,9.9,19.4,9.9c5,0,9.9-1.6,13.9-4.5c2-1.5,3.8-3.2,5.3-5.2c1.5-2.1,2.7-4.4,3.5-6.9c0-0.1,0-0.1,0.1-0.2
			c0.3-1.1,0.6-2.1,0.8-3.3c0.1-0.4,0.1-0.8,0.2-1.2c0.7-5.9-0.9-11.8-4.4-16.6l-0.5-0.7h73.6c2.8,0,5,2.3,5,5L533.1,267.9
			L533.1,267.9z"/>
	</g>
</g>
<g>
	<g>
		<path class="st1" d="M507.7,339.8c-40.8-40.8-107.3-40.8-148.1,0c-7.1,7.1-13,15.1-17.7,23.5l4.4-51.2c0.3-4-2.6-7.5-6.6-7.9
			c-4-0.3-7.5,2.6-7.9,6.6l-11.3,132.3c-0.3,4,2.6,7.5,6.6,7.9c0.2,0,0.4,0,0.6,0c2.8,0,5.3-1.6,6.5-4.1c5,15,13.4,29,25.3,40.9
			c20.4,20.4,47.2,30.6,74.1,30.6c26.8,0,53.6-10.2,74.1-30.6C548.6,447.1,548.6,380.7,507.7,339.8z M497.4,477.7
			c-35.2,35.2-92.4,35.2-127.5,0c-35.2-35.2-35.2-92.4,0-127.5c17.6-17.6,40.7-26.4,63.8-26.4c23.1,0,46.2,8.8,63.8,26.4
			C532.6,385.3,532.6,442.5,497.4,477.7z"/>
	</g>
</g>
<g>
	<g>
		<path class="st1" d="M482,394.6h-29v-29c0-10.7-8.7-19.3-19.3-19.3c-10.7,0-19.3,8.7-19.3,19.3v29h-29c-10.7,0-19.3,8.7-19.3,19.3
			c0,10.7,8.7,19.3,19.3,19.3h29v29c0,10.7,8.7,19.3,19.3,19.3S453,473,453,462.3v-29h29c10.7,0,19.3-8.7,19.3-19.3
			C501.4,403.2,492.7,394.6,482,394.6z M482,418.7h-36.3c-4,0-7.3,3.3-7.3,7.3v36.3c0,2.6-2.1,4.8-4.8,4.8c-2.6,0-4.8-2.1-4.8-4.8
			V426c0-4-3.3-7.3-7.3-7.3h-36.3c-2.6,0-4.8-2.1-4.8-4.8s2.1-4.8,4.8-4.8h36.3c4,0,7.3-3.3,7.3-7.3v-36.3c0-2.6,2.1-4.8,4.8-4.8
			c2.6,0,4.8,2.1,4.8,4.8v36.3c0,4,3.3,7.3,7.3,7.3H482c2.6,0,4.8,2.1,4.8,4.8C486.8,416.5,484.7,418.7,482,418.7z"/>
	</g>
</g>
</svg>
