<?xml version="1.0" encoding="UTF-8" standalone="no"?>
<!DOCTYPE svg PUBLIC "-//W3C//DTD SVG 1.1//EN" "http://www.w3.org/Graphics/SVG/1.1/DTD/svg11.dtd">
<svg width="100%" height="100%" viewBox="0 0 563 565" version="1.1" xmlns="http://www.w3.org/2000/svg" xmlns:xlink="http://www.w3.org/1999/xlink" xml:space="preserve" xmlns:serif="http://www.serif.com/" style="fill-rule:evenodd;clip-rule:evenodd;stroke-linejoin:round;stroke-miterlimit:2;">
    <g transform="matrix(1,0,0,1,0.1,0.1)">
        <rect x="-0.1" y="-0.1" width="562.5" height="564.5" style="fill:rgb(197,32,38);"/>
        <path d="M180.1,167.8C189.7,163.6 195.8,153.2 195.8,137.9C195.8,111.9 178.3,106 158.6,106L125,106C120.6,106 116.3,108.2 116.3,112.5L116.3,234.5C116.3,237.8 119.6,240.8 125,240.8L162.4,240.8C183,240.8 199.1,230.7 199.1,202.1L199.1,198.6C199.1,179.8 191.5,172.2 180.1,167.8ZM135.7,123.4L157.3,123.4C168.9,123.4 176.3,128.7 176.3,141.1C176.3,153.6 170.2,160.1 157.7,160.1L135.8,160.1L135.8,123.4L135.7,123.4ZM158.7,223.5L135.7,223.5L135.7,175.6L158.7,175.6C171.8,175.6 179.5,181.5 179.5,197.7L179.5,200.6C179.6,216.5 171.8,223.5 158.7,223.5Z" style="fill:rgb(1,1,1);fill-rule:nonzero;"/>
        <path d="M438.7,106.1C435.6,106.1 433.7,107.6 432.2,110.5L402,168.9L371.6,110.5C369.9,107.6 368.3,106.1 365.1,106.1C359.9,106.1 352.8,109.4 352.8,114.2C352.8,114.9 353,115.9 353.5,117L391.7,185.7C391.9,186.3 392.3,187 392.3,187.7L392.3,234.3C392.3,238.5 397.1,240.8 402.1,240.8C406.9,240.8 411.9,238.6 411.9,234.3L411.9,187.7C411.9,187 412.1,186.2 412.3,185.7L450.5,117C451.1,115.9 451.1,115 451.1,114.2C450.9,109.4 443.9,106.1 438.7,106.1Z" style="fill:rgb(1,1,1);fill-rule:nonzero;"/>
        <path d="M448.8,386.8L448.8,285.3L448.8,284.7L448.8,281.7C448.8,268 437.7,256.9 424,256.9C417.1,256.9 410.9,259.7 406.4,264.2C401.9,259.7 395.7,256.9 388.8,256.9C381.9,256.9 375.7,259.7 371.2,264.2C366.7,259.7 360.5,256.9 353.6,256.9C349.9,256.9 346.4,257.7 343.2,259.2L343.2,183.7C343.2,170.7 333.1,160 320.4,159L320.4,112.5C320.4,108.1 315.4,106.2 310.6,106.2C305.6,106.2 300.8,108 300.8,112.5L300.8,166C296.3,170.5 293.5,176.7 293.5,183.6L293.5,220C289.7,223.1 284.5,224.7 278.1,224.7C264.1,224.7 255.6,217.1 255.6,200.9L255.6,112.4C255.6,108 250.6,106.1 245.8,106.1C240.8,106.1 236,107.9 236,112.4L236,200.9C236,230.8 254.4,242 278,242C283.5,242 288.6,241.4 293.4,240.1L293.4,343.2L261.7,304.6C253.8,295 239.5,293.6 229.8,301.5C220.8,308.8 219,322.3 225.6,332C225.6,332 225.6,332.1 225.7,332.1C225.9,332.4 247.9,363.9 269.8,397.3C309.9,458.4 313.9,471.1 314.2,473.6L314.2,479.4L311,479.4C307.3,479.4 303.8,480.9 301.1,483.5C298.5,486.1 297,489.6 297,493.4L297,532.7C297,540.4 303.3,546.6 310.9,546.6L428.7,546.5C432.4,546.5 435.9,545 438.6,542.4C441.2,539.8 442.7,536.3 442.7,532.5L442.7,493.2C442.7,485.5 436.4,479.3 428.8,479.3L428.4,479.3L428.4,465.6C428.4,453.1 431.6,440.7 437.7,429.7C445,416.6 448.8,401.8 448.8,386.8ZM311.7,532L311.7,493.8L428.4,493.7L428.4,531.9L311.7,532ZM425.1,422.7C417.8,435.8 414,450.6 414,465.6L414,479.3L328.8,479.4L328.8,473.5C328.8,469.4 328.8,460.8 282.7,390.5C260.9,357.1 238.7,325.4 237.7,323.9C235.3,320.3 235.9,315.4 239.1,312.7C242.6,309.8 247.8,310.3 250.6,313.8L295.1,368C297,370.4 300.3,371.3 303.1,370.2C306,369.2 307.9,366.4 307.9,363.4L307.9,183.6C307.9,177.9 312.5,173.2 318.3,173.2C324.1,173.2 328.7,177.8 328.7,183.6L328.7,345C328.7,349 331.9,352.2 335.9,352.2C339.9,352.2 343.1,349 343.1,345L343.1,281.8L343.1,281.7C343.1,276 347.7,271.3 353.5,271.3C359.2,271.3 363.8,275.9 363.9,281.6L363.9,344.9C363.9,348.9 367.1,352.1 371.1,352.1C375.1,352.1 378.3,348.9 378.3,344.9L378.3,281.7L378.3,281.6C378.3,275.9 382.9,271.2 388.7,271.2C394.4,271.2 399,275.8 399.1,281.5L399.1,344.8C399.1,348.8 402.3,352 406.3,352C410.3,352 413.5,348.8 413.5,344.8L413.5,281.6L413.5,281.5C413.5,275.8 418.1,271.1 423.9,271.1C429.6,271.1 434.3,275.7 434.3,281.5L434.3,386.7C434.4,399.3 431.2,411.7 425.1,422.7Z" style="fill:rgb(1,1,1);fill-rule:nonzero;"/>
        <path d="M275.1,278L97.6,278C67,278 42,253 42,222.3L42,109.2C42,78.5 67,53.6 97.6,53.6L111.8,53.6C115.8,53.6 119,50.4 119,46.4C119,42.4 115.8,39.2 111.8,39.2L97.6,39.2C58.9,39.2 27.5,70.6 27.5,109.3L27.5,222.4C27.5,261.1 58.9,292.5 97.6,292.5L275.1,292.5C279.1,292.5 282.3,289.3 282.3,285.3C282.3,281.2 279.1,278 275.1,278Z" style="fill:rgb(1,1,1);fill-rule:nonzero;"/>
        <path d="M469.4,39.2L163.2,39.2C159.2,39.2 156,42.4 156,46.4C156,50.4 159.2,53.6 163.2,53.6L469.4,53.6C500.1,53.6 525,78.6 525,109.2L525,222.3C525,253 500,277.9 469.4,277.9C465.4,277.9 462.2,281.1 462.2,285.1C462.2,289.1 465.4,292.3 469.4,292.3C508.1,292.3 539.5,260.9 539.5,222.2L539.5,109.2C539.5,70.6 508.1,39.2 469.4,39.2Z" style="fill:rgb(1,1,1);fill-rule:nonzero;"/>
    </g>
</svg>
