<?xml version="1.0" encoding="utf-8"?>
<!-- Generator: Adobe Illustrator 23.0.3, SVG Export Plug-In . SVG Version: 6.00 Build 0)  -->
<svg version="1.1" id="Layer_1" xmlns="http://www.w3.org/2000/svg" xmlns:xlink="http://www.w3.org/1999/xlink" x="0px" y="0px"
	 viewBox="0 0 562.3 564.5" style="enable-background:new 0 0 562.3 564.5;" xml:space="preserve">
<style type="text/css">
	.st0{fill:#C52026;}
	.st1{fill:#010101;}
</style>
<rect x="0" y="0" class="st0" width="562.3" height="563.9"/>
<rect x="0" y="-0.6" class="st0" width="562.3" height="565.1"/>
<g>
	<g>
		<path class="st1" d="M384,30.7H158.1c-18.4,0-33.4,15-33.4,33.4v298.3c0,4,3.3,7.3,7.3,7.3c4,0,7.3-3.3,7.3-7.3V64.2
			c0-10.4,8.5-18.8,18.8-18.8H384c10.4,0,18.8,8.5,18.8,18.8v42.7c0,4,3.3,7.3,7.3,7.3c4,0,7.3-3.3,7.3-7.3V64.2
			C417.4,45.7,402.4,30.7,384,30.7z"/>
	</g>
</g>
<g>
	<g>
		<path class="st1" d="M301.7,54.1h-63c-4,0-7.3,3.3-7.3,7.3s3.3,7.3,7.3,7.3h63c4,0,7.3-3.3,7.3-7.3S305.7,54.1,301.7,54.1z"/>
	</g>
</g>
<g>
	<g>
		<path class="st1" d="M271.1,445.1c-11.8,0-21.3,9.6-21.3,21.3c0,11.8,9.6,21.3,21.3,21.3c11.8,0,21.3-9.6,21.3-21.3
			C292.4,454.7,282.8,445.1,271.1,445.1z M271.1,473.1c-3.7,0-6.7-3-6.7-6.7s3-6.7,6.7-6.7c3.7,0,6.7,3,6.7,6.7
			S274.8,473.1,271.1,473.1z"/>
	</g>
</g>
<g>
	<g>
		<path class="st1" d="M362.5,417.9c-8.5,0-15.1,3.7-15.1,13.6v15.3c0,9.9,6.5,13.6,15.1,13.6c8.4,0,14.9-3.7,14.9-13.6v-15.3
			C377.5,421.6,370.9,417.9,362.5,417.9z M368.5,446.7c0,3.9-2.3,5.7-6,5.7s-5.9-1.8-5.9-5.7v-15.3c0-3.9,2.2-5.7,5.9-5.7
			s6,1.8,6,5.7V446.7z"/>
	</g>
</g>
<g>
	<g>
		<path class="st1" d="M404.9,413.7c-1.6,0-3.1,0.7-3.8,2.2l-37.9,76.7c-0.2,0.5-0.4,1.2-0.4,1.8c0,2.2,2,4.6,4.9,4.6
			c1.8,0,3.5-0.8,4.1-2.3l37.9-76.4c0.3-0.6,0.4-1.3,0.4-1.9C410.2,415.6,407.4,413.7,404.9,413.7z"/>
	</g>
</g>
<g>
	<g>
		<path class="st1" d="M410,452.7c-8.5,0-15.1,3.7-15.1,13.6v15.3c0,10,6.5,13.6,15.1,13.6c8.4,0,14.9-3.6,14.9-13.6v-15.3
			C424.9,456.4,418.4,452.7,410,452.7z M416,481.6c0,3.9-2.3,5.7-6,5.7c-3.7,0-5.9-1.8-5.9-5.7v-15.3c0-3.9,2.2-5.7,5.9-5.7
			c3.7,0,6,1.8,6,5.7V481.6z"/>
	</g>
</g>
<g>
	<g>
		<path class="st1" d="M475.1,442c-0.6-4-3-7.5-6.5-9.6l-16.2-9.6l1.8-18.8c0,0,0,0,0,0c0.4-4.1-1-8.1-3.9-10.9
			c-2.9-2.9-6.9-4.3-11-3.9l-18.8,1.8l-2-3.4V160.3c0-4-3.3-7.3-7.3-7.3c-4,0-7.3,3.3-7.3,7.3v208.6c-0.2-0.1-0.5-0.1-0.7-0.2
			c-0.2,0-0.3-0.1-0.5-0.1c-0.5-0.1-0.9-0.2-1.4-0.3c-2.5-0.4-5-0.1-7.3,0.9V90.9c0-6.8-5.5-12.3-12.3-12.3H163.3
			c-6.8,0-12.3,5.5-12.3,12.3V429c0,6.8,5.5,12.3,12.3,12.3h150.8l1.4,3.1L303,458.6c-0.3,0.4-0.7,0.8-0.9,1.2
			c-1.7,2.5-2.6,5.4-2.5,8.5c0,0.5,0.1,1,0.2,1.5c0,0.2,0.1,0.5,0.2,0.7c0.6,2.9,2.2,5.5,4.4,7.5c0.6,0.5,1.3,1,2,1.4l16.2,9.6
			l-0.1,1.4H159.1c-10.4,0-18.8-8.5-18.8-18.8v-54.9c0-4-3.3-7.3-7.3-7.3c-4,0-7.3,3.3-7.3,7.3v54.9c0,18.4,15,33.4,33.4,33.4H321
			l-0.3,2.7c-0.4,4.1,1,8.1,3.9,11c2.9,2.9,6.9,4.3,11,3.9l18.8-1.8l9.6,16.2c2.1,3.5,5.6,5.9,9.6,6.5c0.7,0.1,1.4,0.2,2.1,0.2
			c3.3,0,6.5-1.2,9-3.4l14.1-12.5l17.3,7.5c3.7,1.6,8,1.5,11.6-0.4c3.6-1.9,6.2-5.2,7.1-9.2l4.1-18.4l18.4-4.1
			c4-0.9,7.3-3.5,9.2-7.1c1.9-3.6,2-7.9,0.4-11.6l-7.5-17.3l12.5-14.1C474.5,450.1,475.7,446,475.1,442z M314.7,409.4
			c-2.7,1.3-4.9,3.4-6.3,6.1c-0.2,0.4-0.4,0.9-0.6,1.4c-0.1,0.1-0.1,0.3-0.1,0.4c-0.1,0.3-0.2,0.6-0.3,1c0,0.2-0.1,0.4-0.1,0.6
			c-0.1,0.3-0.1,0.6-0.2,0.9c0,0.2,0,0.4-0.1,0.6c0,0.3-0.1,0.5-0.1,0.8c0,0.2,0,0.4,0,0.7c0,0.3,0,0.5,0,0.8c0,0.2,0,0.5,0.1,0.7
			c0,0.3,0.1,0.5,0.1,0.8c0,0.2,0.1,0.5,0.1,0.7c0.1,0.3,0.1,0.5,0.2,0.7c0.1,0.2,0.1,0.4,0.2,0.7c0.1,0.2,0.1,0.3,0.2,0.5H165.6v0
			V93.2h213.8V381l-3.4,3l-17.3-7.5c-2.5-1.1-5.3-1.4-8-0.9c-1.3,0.2-2.5,0.6-3.7,1.2c-3.6,1.9-6.2,5.2-7.1,9.2l-4.1,18.4l-18.4,4.1
			C316.5,408.7,315.6,409,314.7,409.4z M448,458.1c-3.5,4-4.4,9.6-2.3,14.5l7.3,16.8l-17.8,4c-5.2,1.1-9.2,5.2-10.4,10.4l-4,17.8
			l-16.8-7.3c-4.8-2.1-10.5-1.2-14.5,2.3l-13.7,12.1l-9.3-15.8c-2.5-4.2-7-6.7-11.8-6.7c-0.4,0-0.9,0-1.3,0.1l-18.2,1.8l1.8-18.2
			c0.1-1.3,0.1-2.6-0.2-3.9c-0.7-3.8-3.1-7.2-6.5-9.2l-15.8-9.3l12.1-13.7c2.2-2.5,3.4-5.6,3.4-8.8c0-0.9-0.1-1.8-0.2-2.6
			c-0.2-1-0.5-2-0.9-3l-7.3-16.8l17.8-4c5.2-1.1,9.2-5.2,10.4-10.4l4-17.8l16.8,7.3c0.3,0.1,0.6,0.3,0.9,0.4
			c4.6,1.6,9.9,0.6,13.6-2.7l6.3-5.6c0,0,0,0,0,0l7.4-6.5l9.3,15.8c2.7,4.5,7.8,7.2,13.1,6.7l18.2-1.8l-1.8,18.2
			c-0.5,5.3,2.1,10.4,6.7,13.1l15.8,9.3L448,458.1z"/>
	</g>
</g>
</svg>
