<?xml version="1.0" encoding="UTF-8" standalone="no"?>
<!DOCTYPE svg PUBLIC "-//W3C//DTD SVG 1.1//EN" "http://www.w3.org/Graphics/SVG/1.1/DTD/svg11.dtd">
<svg width="100%" height="100%" viewBox="0 0 108 71" version="1.1" xmlns="http://www.w3.org/2000/svg" xmlns:xlink="http://www.w3.org/1999/xlink" xml:space="preserve" xmlns:serif="http://www.serif.com/" style="fill-rule:evenodd;clip-rule:evenodd;stroke-linecap:round;stroke-linejoin:round;stroke-miterlimit:1.5;">
    <g transform="matrix(1,0,0,1,-309.004,-549.545)">
        <g id="Quotes">
            <g>
                <g transform="matrix(0.988295,0,0,1.08861,3.62275,-54.9319)">
                    <path d="M328.878,596.478C327.553,605.881 321.016,610.816 309.504,611.486L309.504,619.945C338.572,616.717 354.557,601.796 356.438,576.832L328.878,596.478" style="stroke:black;stroke-width:0.96px;"/>
                </g>
                <g transform="matrix(1,0,0,1,-1.63722,0.818609)">
                    <circle cx="334.608" cy="572.193" r="23.467"/>
                </g>
            </g>
            <g transform="matrix(1,0,0,1,60.3042,0)">
                <g transform="matrix(0.988295,0,0,1.08861,3.62275,-54.9319)">
                    <path d="M328.878,596.478C327.553,605.881 321.016,610.816 309.504,611.486L309.504,619.945C338.572,616.717 354.557,601.796 356.438,576.832L328.878,596.478" style="stroke:black;stroke-width:0.96px;"/>
                </g>
                <g transform="matrix(1,0,0,1,-1.63722,0.818609)">
                    <circle cx="334.608" cy="572.193" r="23.467"/>
                </g>
            </g>
        </g>
    </g>
</svg>
