<?xml version="1.0" encoding="utf-8"?>
<!-- Generator: Adobe Illustrator 23.0.3, SVG Export Plug-In . SVG Version: 6.00 Build 0)  -->
<svg version="1.0" id="Capa_1" xmlns="http://www.w3.org/2000/svg" xmlns:xlink="http://www.w3.org/1999/xlink" x="0px" y="0px"
	 viewBox="0 0 515 515" style="enable-background:new 0 0 515 515;" xml:space="preserve">
<style type="text/css">
	.st0{fill:#CCCCCC;}
	.st1{fill:#999999;}
	.st2{fill:#666666;}
	.st3{fill:#FFFFFF;}
	.st4{fill:#C7001C;}
</style>
<path d="M0,386.7V119.3c0-4.6,4-8.6,8.6-8.6h405.4c4.6,0,8.6,4,8.6,8.6v267.4L0,386.7L0,386.7z"/>
<g>
	<path class="st0" d="M422.5,386.7V421c0,4.6-4,8.6-8.6,8.6H8.6c-4.6,0-8.6-4-8.6-8.6v-34.3H422.5L422.5,386.7z"/>
	<rect x="120.8" y="490.3" class="st0" width="180.9" height="9.9"/>
</g>
<g>
	<polygon class="st1" points="271.3,490.3 151.2,490.3 159.8,429.6 262.8,429.6 	"/>
	<rect x="17.2" y="127.9" class="st1" width="388.2" height="241.6"/>
</g>
<polygon class="st2" points="262.8,429.6 159.8,429.6 155,463.5 264.3,440.5 "/>
<circle class="st3" cx="231.5" cy="195.1" r="30.5"/>
<g>
	<path class="st4" d="M148.1,245.4l-26.5,33.1l29.1,29.1l34.4-27.8c6.6,4,14.6,6.6,22.5,7.9l4,46.3h21.2l0,0H254l4-46.3
		c7.9-1.3,15.9-5.3,22.5-7.9l34.4,27.8l29.1-29.1l-26.5-33.1c5.3-7.9,7.9-15.9,10.6-25.2l41-4v-41l-41-4
		c-2.6-9.3-6.6-17.2-10.6-25.2L344,113l-29.1-29.1l-34.4,26.5c-6.6-4-14.6-6.6-22.5-7.9l-4-45h-21.2l0,0h-21.2l-5.3,45
		c-7.9,1.3-15.9,5.3-22.5,7.9l-34.4-27.8l-29.1,29.1l26.5,33.1c-4,7.9-7.9,15.9-10.6,25.2l-41.1,4v41l42.4,4
		C138.8,229.5,142.8,237.4,148.1,245.4z M231.5,132.8c34.4,0,60.9,27.8,60.9,62.2s-27.8,62.2-60.9,62.2s-60.9-27.8-60.9-62.2
		S198.4,132.8,231.5,132.8z"/>
	<ellipse class="st4" cx="432.9" cy="84.6" rx="14.8" ry="14.8"/>
	<path class="st4" d="M364.6,74.2V95l20.8,1.5c1.5,4.5,3,8.9,5.9,13.4L378,126.2l14.8,14.8l17.8-14.8c3,1.5,7.4,3,11.9,4.5l1.5,23.8
		h10.4l0,0h8.9l1.5-23.8c4.5-1.5,7.4-3,11.9-4.5l17.8,14.8l14.8-14.8L476,109.8c3-4.5,4.5-8.9,5.9-13.4l20.8-1.5V74.2l-20.8-1.5
		c-1.5-4.5-3-8.9-5.9-11.9l13.4-16.3l-14.8-14.8l-17.8,14.8c-3-1.5-7.4-3-11.9-4.5l-1.5-25.2h-10.4l0,0h-10.4L421,37.1
		c-4.5,1.5-7.4,3-11.9,4.5l-17.8-14.8l-14.8,14.8l13.4,16.3c-3,4.5-4.5,8.9-5.9,11.9L364.6,74.2z M432.9,51.9
		c17.8,0,31.2,13.4,31.2,31.2s-13.4,31.2-31.2,31.2s-31.2-13.4-31.2-31.2S416.6,51.9,432.9,51.9z"/>
</g>
<g>
	<ellipse class="st0" cx="474.9" cy="240.3" rx="9.4" ry="9.4"/>
	<path class="st0" d="M515,246.2v-11.8l-11.8-1.2c-1.2-2.4-1.2-4.7-3.5-7.1l8.3-9.4l-8.3-8.3l-10.6,8.3c-2.4-1.2-4.7-2.4-7.1-2.4
		l-1.2-13h-5.9l0,0h-7.1l-1.2,13c-2.4,0-4.7,1.2-7.1,2.4l-10.6-8.3l-8.3,8.3l8.3,9.4c-1.2,2.4-2.4,4.7-3.5,7.1l-11.8,1.2v11.8
		l11.8,1.2c1.2,2.4,1.2,4.7,3.5,7.1l-8.3,9.4l8.3,8.3l10.6-8.3c2.4,1.2,4.7,2.4,7.1,2.4l1.2,13h5.9l0,0h5.9l1.2-13
		c2.4,0,4.7-1.2,7.1-2.4l10.6,8.3l8.3-8.3l-7.1-8.3c1.2-2.4,2.4-4.7,3.5-7.1L515,246.2z M474.9,259.1c-10.6,0-17.7-8.3-17.7-18.9
		s8.3-18.9,17.7-18.9s17.7,8.3,17.7,18.9S484.4,259.1,474.9,259.1z"/>
	<ellipse class="st0" cx="79.9" cy="303.1" rx="7.1" ry="7.1"/>
	<path class="st0" d="M46.9,297.2v9.4l9.4,2.4c0,2.4,1.2,4.7,2.4,5.9l-5.9,8.3l7.1,7.1l8.3-7.1c1.2,1.2,3.5,1.2,5.9,2.4l1.2,10.6
		h4.7l0,0h4.7l1.2-10.6c2.4,0,3.5-1.2,5.9-2.4l8.3,7.1l7.1-7.1l-5.9-8.3c1.2-1.2,2.4-3.5,2.4-5.9l9.4-1.2v-10.6l-9.4-1.2
		c0-2.4-1.2-4.7-2.4-5.9l5.9-8.3l-7.1-7.1l-8.3,7.1c-1.2-1.2-3.5-1.2-5.9-2.4l-1.2-10.6h-4.7l0,0h-4.7L74,279.5
		c-2.4,0-3.5,1.2-5.9,2.4l-8.3-7.1l-7.1,7.1l5.9,8.3c-1.2,1.2-2.4,3.5-2.4,5.9L46.9,297.2z M79.9,287.8c8.3,0,14.1,7.1,14.1,15.3
		s-7.1,15.3-14.1,15.3s-14.1-7.1-14.1-15.3C65.8,294.9,71.7,287.8,79.9,287.8z"/>
</g>
</svg>
