<?xml version="1.0" encoding="iso-8859-1"?>
<!-- Generator: Adobe Illustrator 19.0.0, SVG Export Plug-In . SVG Version: 6.00 Build 0)  -->
<svg version="1.1" id="Capa_1" xmlns="http://www.w3.org/2000/svg" xmlns:xlink="http://www.w3.org/1999/xlink" x="0px" y="0px"
	 viewBox="0 0 515 515" style="enable-background:new 0 0 515 515;" xml:space="preserve">
<path d="M0.008,386.66V119.292c0-4.624,3.96-8.584,8.584-8.584h405.352c4.624,0,8.584,3.96,8.584,8.584v267.376H0.008V386.66z"/>
<g>
	<path style="fill:#CCCCCC;" d="M422.52,386.66v34.328c0,4.624-3.96,8.584-8.584,8.584H8.584c-4.624,0-8.584-3.96-8.584-8.584
		V386.66L422.52,386.66L422.52,386.66z"/>
	<rect x="120.816" y="490.292" style="fill:#CCCCCC;" width="180.888" height="9.904"/>
</g>
<g>
	<polygon style="fill:#999999;" points="271.336,490.308 151.184,490.308 159.768,429.572 262.76,429.572 	"/>
	<rect x="17.168" y="127.876" style="fill:#999999;" width="388.16" height="241.6"/>
</g>
<polygon style="fill:#666666;" points="262.76,429.572 159.768,429.572 154.976,463.476 264.296,440.492 "/>
<circle style="fill:#FFFFFF;" cx="231.488" cy="195.068" r="30.456"/>
<g>
	<path style="fill:#F91E1E;" d="M148.072,245.38l-26.48,33.104l29.128,29.128l34.424-27.808c6.624,3.976,14.568,6.624,22.512,7.944
		l3.976,46.344h21.184l0,0H254l3.976-46.344c7.944-1.328,15.888-5.296,22.512-7.944l34.424,27.808l29.128-29.128l-26.48-33.104
		c5.296-7.944,7.944-15.888,10.592-25.16l41.048-3.976v-41.048l-41.048-3.976c-2.648-9.272-6.624-17.216-10.592-25.16l26.48-33.104
		l-29.128-29.128l-34.424,26.48c-6.624-3.976-14.568-6.624-22.512-7.944L254,57.348h-21.184l0,0h-21.184l-5.296,45.016
		c-7.944,1.328-15.888,5.296-22.512,7.944L149.4,82.5l-29.128,29.128l26.48,33.104c-3.976,7.944-7.944,15.888-10.592,25.16
		l-41.056,3.992v41.048l42.368,3.976C138.8,229.492,142.776,237.436,148.072,245.38z M231.488,132.836
		c34.424,0,60.904,27.808,60.904,62.232S264.584,257.3,231.488,257.3s-60.904-27.808-60.904-62.232S198.384,132.836,231.488,132.836
		z"/>
	<ellipse style="fill:#F91E1E;" cx="432.912" cy="84.588" rx="14.848" ry="14.848"/>
	<path style="fill:#F91E1E;" d="M364.616,74.196V94.98l20.784,1.488c1.488,4.456,2.968,8.912,5.936,13.36l-13.36,16.328
		l14.848,14.848l17.816-14.848c2.968,1.488,7.424,2.968,11.88,4.456l1.488,23.752H434.4l0,0h8.912l1.488-23.752
		c4.456-1.488,7.424-2.968,11.88-4.456l17.816,14.848l14.848-14.848l-13.36-16.328c2.968-4.456,4.456-8.912,5.936-13.36
		l20.784-1.488V74.196l-20.784-1.488c-1.488-4.456-2.968-8.912-5.936-11.88l13.36-16.328l-14.848-14.848L456.68,44.5
		c-2.968-1.488-7.424-2.968-11.88-4.456l-1.488-25.24H432.92l0,0h-10.392l-1.488,22.272c-4.456,1.488-7.424,2.968-11.88,4.456
		l-17.816-14.848l-14.848,14.848l13.36,16.328c-2.968,4.456-4.456,8.912-5.936,11.88L364.616,74.196z M432.912,51.932
		c17.816,0,31.176,13.36,31.176,31.176s-13.36,31.176-31.176,31.176s-31.176-13.36-31.176-31.176S416.584,51.932,432.912,51.932z"/>
</g>
<g>
	<ellipse style="fill:#CCCCCC;" cx="474.944" cy="240.268" rx="9.432" ry="9.432"/>
	<path style="fill:#CCCCCC;" d="M515,246.164v-11.792l-11.792-1.176c-1.176-2.36-1.176-4.712-3.536-7.072l8.256-9.432l-8.256-8.256
		l-10.608,8.256c-2.36-1.176-4.712-2.36-7.072-2.36l-1.176-12.968h-5.896l0,0h-7.072l-1.176,12.968c-2.36,0-4.712,1.176-7.072,2.36
		l-10.608-8.256l-8.256,8.256l8.256,9.432c-1.176,2.36-2.36,4.712-3.536,7.072l-11.792,1.176v11.792l11.792,1.176
		c1.176,2.36,1.176,4.712,3.536,7.072l-8.256,9.432l8.256,8.256l10.608-8.256c2.36,1.176,4.712,2.36,7.072,2.36l1.176,12.968h5.896
		l0,0h5.896l1.176-12.968c2.36,0,4.712-1.176,7.072-2.36l10.608,8.256l8.256-8.256l-7.072-8.256c1.176-2.36,2.36-4.712,3.536-7.072
		L515,246.164z M474.92,259.132c-10.608,0-17.68-8.256-17.68-18.864s8.256-18.864,17.68-18.864s17.68,8.256,17.68,18.864
		S484.352,259.132,474.92,259.132z"/>
	<ellipse style="fill:#CCCCCC;" cx="79.912" cy="303.1" rx="7.072" ry="7.072"/>
	<path style="fill:#CCCCCC;" d="M46.896,297.204v9.432l9.432,2.36c0,2.36,1.176,4.712,2.36,5.896l-5.896,8.256l7.072,7.072
		l8.256-7.072c1.176,1.176,3.536,1.176,5.896,2.36l1.176,10.608h4.712l0,0h4.712l1.176-10.608c2.36,0,3.536-1.176,5.896-2.36
		l8.256,7.072l7.072-7.072l-5.896-8.256c1.176-1.176,2.36-3.536,2.36-5.896l9.432-1.176v-10.608l-9.432-1.176
		c0-2.36-1.176-4.712-2.36-5.896l5.896-8.256l-7.072-7.072l-8.256,7.072c-1.176-1.176-3.536-1.176-5.896-2.36l-1.176-10.608h-4.704
		l0,0h-4.72l-1.176,10.608c-2.36,0-3.536,1.176-5.896,2.36l-8.256-7.072l-7.072,7.072l5.896,8.256
		c-1.176,1.176-2.36,3.536-2.36,5.896L46.896,297.204z M79.912,287.772c8.256,0,14.144,7.072,14.144,15.328
		s-7.072,15.328-14.144,15.328s-14.144-7.072-14.144-15.328C65.76,294.852,71.656,287.772,79.912,287.772z"/>
</g>
<g>
</g>
<g>
</g>
<g>
</g>
<g>
</g>
<g>
</g>
<g>
</g>
<g>
</g>
<g>
</g>
<g>
</g>
<g>
</g>
<g>
</g>
<g>
</g>
<g>
</g>
<g>
</g>
<g>
</g>
</svg>
