<?xml version="1.0" encoding="UTF-8" standalone="no"?>
<!DOCTYPE svg PUBLIC "-//W3C//DTD SVG 1.1//EN" "http://www.w3.org/Graphics/SVG/1.1/DTD/svg11.dtd">
<svg width="100%" height="100%" viewBox="0 0 482 481" version="1.1" xmlns="http://www.w3.org/2000/svg" xmlns:xlink="http://www.w3.org/1999/xlink" xml:space="preserve" xmlns:serif="http://www.serif.com/" style="fill-rule:evenodd;clip-rule:evenodd;stroke-miterlimit:10;">
    <g id="zing-icon" transform="matrix(1,0,0,1,-134,-356)">
        <g transform="matrix(2,0,0,2,254.4,466.974)">
            <path d="M60.3,55.3C58.5,55.3 56.8,55.7 55.4,56.6C53.9,57.4 52.8,58.6 51.9,60C51,61.4 50.6,63 50.6,64.8C50.6,66.6 51.1,68.2 51.9,69.6C52.8,71 53.9,72.1 55.4,73C56.9,73.8 58.5,74.3 60.3,74.3C62.1,74.3 63.7,73.9 65.2,73C66.7,72.2 67.8,71 68.7,69.6C69.6,68.2 70,66.6 70,64.8C70,63 69.5,61.4 68.7,60C67.8,58.6 66.6,57.5 65.2,56.6C63.7,55.7 62,55.3 60.3,55.3" style="fill:rgb(199,0,28);"/>
        </g>
        <g transform="matrix(2,0,0,2,254.4,466.974)">
            <path d="M29.3,55.3C27.5,55.3 25.8,55.7 24.4,56.6C22.9,57.4 21.8,58.6 20.9,60C20,61.4 19.6,63 19.6,64.8C19.6,66.6 20.1,68.2 20.9,69.6C21.8,71 22.9,72.1 24.4,73C25.9,73.8 27.5,74.3 29.3,74.3C31.1,74.3 32.7,73.9 34.2,73C35.7,72.2 36.8,71 37.7,69.6C38.6,68.2 39,66.6 39,64.8C39,63 38.5,61.4 37.7,60C36.8,58.6 35.6,57.5 34.2,56.6C32.7,55.7 31.1,55.3 29.3,55.3" style="fill:rgb(199,0,28);"/>
        </g>
        <g transform="matrix(2,0,0,2,254.4,466.974)">
            <path d="M60.3,15C32.8,15 10.5,37.3 10.5,64.8L10.5,114.6L60.3,114.6C87.8,114.6 110.1,92.3 110.1,64.8C110,37.3 87.7,15 60.3,15Z" style="fill:none;stroke:rgb(43,48,64);stroke-width:14px;"/>
        </g>
        <g transform="matrix(2,0,0,2,254.4,466.974)">
            <path d="M90.7,55.3C92.5,55.3 94.2,55.7 95.6,56.6C97.1,57.4 98.2,58.6 99.1,60C100,61.4 100.4,63 100.4,64.8C100.4,66.6 99.9,68.2 99.1,69.6C98.2,71 97.1,72.1 95.6,73C94.1,73.8 92.5,74.3 90.7,74.3C88.9,74.3 87.3,73.9 85.8,73C84.3,72.2 83.2,71 82.3,69.6C81.4,68.2 81,66.6 81,64.8C81,63 81.5,61.4 82.3,60C83.2,58.6 84.4,57.5 85.8,56.6C87.3,55.7 88.9,55.3 90.7,55.3" style="fill:rgb(199,0,28);"/>
        </g>
    </g>
</svg>
